<?xml version="1.0" standalone="no"?>
<!DOCTYPE svg PUBLIC "-//W3C//DTD SVG 20010904//EN"
 "http://www.w3.org/TR/2001/REC-SVG-20010904/DTD/svg10.dtd">
<svg version="1.0" xmlns="http://www.w3.org/2000/svg"
 width="2400.000000pt" height="2400.000000pt" viewBox="0 0 2400.000000 2400.000000"
 preserveAspectRatio="xMidYMid meet">
<metadata>
Created by potrace 1.14, written by Peter Selinger 2001-2017
</metadata>
<g transform="translate(0.000000,2400.000000) scale(0.100000,-0.100000)"
fill="#000000" stroke="none">
<path d="M20285 21379 c-2076 -128 -3702 -940 -4796 -2394 -791 -1051 -1259
-2413 -1349 -3920 -6 -101 -10 -758 -10 -1610 l1 -1440 54 170 c453 1429 1116
2602 2148 3802 423 491 990 1066 1537 1558 67 60 51 42 -140 -152 -390 -398
-660 -695 -977 -1076 -1229 -1476 -1942 -2880 -2318 -4561 -33 -148 -105 -524
-105 -548 0 -16 813 -3 978 16 729 85 1429 307 2097 664 693 371 1306 851
1824 1427 831 927 1374 2086 1541 3290 57 418 54 255 57 2613 l4 2172 -208 -1
c-114 -1 -266 -6 -338 -10z"/>
<path d="M3170 17443 c0 -589 19 -826 96 -1198 287 -1382 1101 -2701 2244
-3636 886 -724 1955 -1193 3080 -1348 409 -57 301 -55 2463 -58 l1998 -4 -42
58 c-158 215 -219 295 -326 428 -1273 1594 -2851 2658 -5283 3561 -124 46
-220 83 -215 84 17 0 584 -183 830 -268 976 -338 1828 -727 2590 -1184 908
-545 1871 -1377 2663 -2301 l92 -107 -2 2183 -3 2183 -24 35 c-13 19 -40 46
-60 60 -35 23 -42 24 -243 27 -191 3 -210 2 -246 -17 -49 -25 -88 -71 -102
-119 -6 -24 -10 -275 -10 -697 l-1 -660 -53 105 c-185 363 -446 755 -727 1092
-95 112 -440 468 -549 564 -1054 933 -2430 1496 -4018 1644 -370 34 -687 40
-2449 40 l-1703 0 0 -467z"/>
<path d="M10770 10519 c-1111 -102 -2131 -763 -2781 -1802 -387 -618 -589
-1286 -589 -1948 l0 -160 1163 4 c1191 5 1206 5 1506 48 771 109 1468 403
2000 843 203 168 405 377 549 570 l52 69 0 -1489 c0 -993 4 -1501 10 -1526 14
-50 55 -97 105 -119 56 -26 408 -28 458 -3 45 23 76 53 98 96 19 36 19 101 19
2628 l0 2591 -67 -78 c-139 -162 -352 -384 -534 -558 -723 -690 -1651 -1203
-2899 -1603 -225 -73 -301 -94 -308 -88 -3 3 0 6 7 6 6 0 126 43 266 95 690
258 1307 565 1815 904 507 339 998 793 1391 1286 116 146 179 230 179 238 0
10 -2330 6 -2440 -4z"/>
<path d="M14132 6631 l3 -3899 31 -39 c61 -75 73 -78 304 -78 196 0 207 1 245
23 45 26 81 72 95 123 6 22 10 1304 10 3556 l0 3523 1073 0 c706 0 1085 4
1109 10 48 14 94 53 118 101 18 34 20 59 20 241 0 188 -2 206 -21 237 -11 19
-30 43 -42 53 -58 50 16 48 -1517 48 l-1430 0 2 -3899z"/>
</g>
</svg>
